<svg width="16" height="16" viewBox="0 0 20 20" fill="none" xmlns="http://www.w3.org/2000/svg">
<mask id="mask0_7035_10389" style="mask-type:luminance" maskUnits="userSpaceOnUse" x="0" y="0" width="20" height="20">
<path d="M20 0H0V20H20V0Z" fill="white"/>
</mask>
<g mask="url(#mask0_7035_10389)">
<path d="M3.92578 13.2969L7.85937 11.0898L7.92578 10.8984L7.85937 10.793H7.66797L7.00782 10.7539L4.75782 10.6914L2.8125 10.6094L0.921875 10.5078L0.445312 10.4062L0 9.82031L0.046875 9.52735L0.445312 9.26171L1.01563 9.3125L2.28125 9.39845L4.17968 9.53125L5.55468 9.61328L7.59375 9.82421H7.91797L7.96485 9.69531L7.85157 9.61328L7.76562 9.53125L5.80078 8.20313L3.67578 6.79688L2.5625 5.98828L1.96093 5.57813L1.65625 5.19141L1.52344 4.35156L2.07032 3.75L2.80468 3.80078L2.99218 3.85156L3.73828 4.42188L5.32812 5.65235L7.40235 7.17968L7.70703 7.4336L7.82812 7.34766L7.84375 7.28516L7.70703 7.0586L6.57812 5.01953L5.375 2.94531L4.83985 2.08593L4.69922 1.5625C4.64453 1.36328 4.61718 1.16016 4.61328 0.953124L5.23828 0.109375L5.58203 -0.00390625L6.41015 0.109375L6.76172 0.414063L7.27735 1.59375L8.11328 3.45313L9.41015 5.97656L9.78907 6.72656L9.99218 7.41796L10.0664 7.62891H10.1992V7.50781L10.3047 6.08593L10.5039 4.33985L10.6953 2.09375L10.7617 1.46094L11.0742 0.703124L11.6953 0.292969L12.1836 0.527344L12.582 1.09766L12.5274 1.46875L12.2891 3.01171L11.8242 5.42968L11.5195 7.04688H11.6953L11.8984 6.84375L12.7188 5.75391L14.0938 4.03516L14.7031 3.35156L15.4102 2.59766L15.8672 2.23828H16.7265L17.3593 3.17968L17.0742 4.15235L16.1875 5.27343L15.4531 6.22656L14.3984 7.64453L13.7383 8.77735L13.8008 8.8672L13.957 8.85156L16.3359 8.34766L17.6212 8.11328L19.1562 7.85156L19.8515 8.17578L19.9258 8.50391L19.6523 9.17578L18.0117 9.58203L16.0859 9.96875L13.2188 10.6445L13.1836 10.668L13.2227 10.7187L14.5117 10.8398L15.0625 10.8711H16.4141L18.9297 11.0586L19.5898 11.4922L19.9843 12.0234L19.918 12.4258L18.9062 12.9414L17.539 12.6172L14.3477 11.8594L13.2539 11.5859H13.1016V11.6758L14.0117 12.5664L15.6836 14.0742L17.7735 16.0156L17.8788 16.4961L17.6093 16.875L17.3242 16.836L15.4883 15.457L14.7774 14.8359L13.1719 13.4844H13.0664V13.625L13.4375 14.1641L15.3906 17.0977L15.4922 17.9962L15.3516 18.289L14.8438 18.4648L14.2852 18.3633L13.1641 16.7735L11.9844 14.9687L11.0313 13.3477L10.9141 13.4141L10.3516 19.461L10.0899 19.7695L9.48047 20.0038L8.97657 19.6212L8.70703 19L8.97657 17.7695L9.30078 16.168L9.5625 14.8945L9.80078 13.3125L9.9414 12.7852L9.92968 12.75L9.8125 12.7656L8.61718 14.4062L6.80078 16.8593L5.36328 18.3985L5.01953 18.5352L4.42187 18.2265L4.47657 17.6758L4.8125 17.1837L6.80078 14.6523L8 13.0859L8.77343 12.1797L8.76953 12.0469H8.72265L3.4414 15.4648L2.5 15.5898L2.09375 15.2109L2.14453 14.5898L2.33593 14.3867L3.92578 13.293C3.92968 13.2891 3.92578 13.2969 3.92578 13.2969Z" fill="#D97757"/>
</g>
</svg>
