<svg width="16" height="16" viewBox="0 0 16 15" fill="none" xmlns="http://www.w3.org/2000/svg">
<g clip-path="url(#clip0_7035_10434)">
<path d="M6.18152 9.62845L11.5012 5.78934C11.762 5.60114 12.1347 5.67455 12.259 5.96691C12.913 7.50867 12.6208 9.3615 11.3196 10.6336C10.0183 11.9057 8.2078 12.1847 6.55293 11.5493L4.74512 12.3676C7.33805 14.1003 10.4867 13.6718 12.4543 11.7469C14.0149 10.2211 14.4983 8.14139 14.0463 6.26592L14.0504 6.26991C13.395 3.51473 14.2116 2.41346 15.8842 0.16152C15.9238 0.108125 15.9634 0.0547298 16.003 0L13.8019 2.15182V2.14515L6.18017 9.62981" fill="black"/>
<path d="M5.08406 10.5618C3.22297 8.82374 3.54385 6.13395 5.13182 4.58286C6.30607 3.43485 8.22996 2.96632 9.9094 3.65511L11.7131 2.84084C11.3882 2.61124 10.9717 2.36429 10.4938 2.19075C8.33374 1.32175 5.74763 1.75425 3.9917 3.46956C2.30268 5.1208 1.77154 7.65974 2.68364 9.82625C3.36498 11.4455 2.24806 12.5908 1.12296 13.7468C0.724257 14.1566 0.32419 14.5664 0.00195312 15.0002L5.08267 10.5631" fill="black"/>
</g>
<defs>
<clipPath id="clip0_7035_10434">
<rect width="16" height="15" fill="white"/>
</clipPath>
</defs>
</svg>
