<svg width="14" height="14" viewBox="0 0 20 20" fill="none" xmlns="http://www.w3.org/2000/svg">
<path d="M7.60163 7.38939V5.29739C7.60163 5.15675 7.64228 5.05713 7.78165 4.97509L11.626 2.72487C12.1429 2.42602 12.8049 2.27952 13.4379 2.27952C15.8711 2.27952 17.4042 4.17228 17.4042 6.19982C17.4042 6.35804 17.4042 6.58072 17.3635 6.76238L13.3391 4.3891C13.1417 4.26604 12.921 4.24846 12.6829 4.3891L7.60163 7.38939ZM16.4925 14.8139V10.167C16.4925 9.90331 16.3937 9.72165 16.1556 9.58101L11.0511 6.58658L12.8455 5.54351C12.9443 5.48491 13.1069 5.48491 13.2056 5.54351L17.0732 7.79373C18.1707 8.43832 18.9257 9.84471 18.9257 11.1925C18.9199 12.7805 17.9675 14.2455 16.4925 14.8139ZM6.54472 10.8057L4.76771 9.74509C4.62834 9.66305 4.58769 9.56343 4.58769 9.42279V4.93993C4.58769 2.74831 6.24274 1.09581 8.49593 1.09581C9.37282 1.09581 10.2091 1.39467 10.8885 1.93964L6.88153 4.29534C6.64344 4.43598 6.54472 4.61764 6.54472 4.88134V10.8057ZM10.0116 12.8216L7.60163 11.4562V8.56138L10.0116 7.19601L12.4042 8.56138V11.4562L10.0116 12.8216ZM11.5041 18.9159C10.6272 18.9159 9.79094 18.6171 9.1115 18.0721L13.1185 15.7164C13.3566 15.5757 13.4553 15.3941 13.4553 15.1304V9.20012L15.2497 10.2666C15.3891 10.3487 15.4297 10.4483 15.4297 10.5889V15.0718C15.4355 17.2634 13.7573 18.9159 11.5041 18.9159ZM6.80023 14.4682L2.93264 12.218C1.83508 11.5734 1.08014 10.167 1.08014 8.81922C1.08014 7.20773 2.05575 5.76033 3.53078 5.19777V9.86229C3.53078 10.126 3.6295 10.3076 3.8676 10.4483L8.9489 13.4251L7.15447 14.4682C7.06156 14.5268 6.89895 14.5268 6.80023 14.4682ZM6.56214 17.7263C4.26829 17.7263 2.59582 15.9977 2.59582 13.8471C2.59582 13.6478 2.61324 13.4427 2.63647 13.2611L6.64344 15.5933C6.88153 15.734 7.08479 15.734 7.32288 15.5933L12.4042 12.6165V14.7085C12.4042 14.8491 12.3635 14.9487 12.2242 15.0308L8.37979 17.281C7.85714 17.5857 7.20093 17.7263 6.56214 17.7263ZM11.5041 20C13.8966 20 15.8885 18.2713 16.3298 15.9742C18.5598 15.4117 20 13.3197 20 11.1866C20 9.78025 19.4019 8.43246 18.3043 7.44799C18.403 7.02608 18.4843 6.58072 18.4843 6.1588C18.4843 3.32259 16.1905 1.18957 13.5598 1.18957C13.0197 1.18957 12.4855 1.28919 11.9628 1.47085C11.0685 0.568415 9.84901 0 8.49593 0C6.10337 0 4.1115 1.72868 3.67015 4.02578C1.44019 4.58834 0 6.68034 0 8.81336C0 10.2197 0.598141 11.5675 1.6957 12.552C1.59698 12.9739 1.51568 13.4193 1.51568 13.8412C1.51568 16.6774 3.80952 18.8104 6.44019 18.8104C6.98026 18.8104 7.51452 18.7108 8.03717 18.5292C8.93728 19.4374 10.151 20 11.5041 20Z" fill="black"/>
</svg>
