<svg width="16" height="16" viewBox="0 0 16 16" fill="none" xmlns="http://www.w3.org/2000/svg">
<g clip-path="url(#clip0_7033_10235)">
<path d="M7.35214 2.94216L7.75576 4.83058C8.12173 6.54188 9.45849 7.87858 11.1699 8.24454L13.0583 8.64814C13.6903 8.78329 13.6903 9.68492 13.0583 9.82007L11.1699 10.2237C9.45849 10.5896 8.12173 11.9263 7.75576 13.6376L7.35214 15.526C7.21699 16.158 6.31533 16.158 6.18017 15.526L5.77655 13.6376C5.41058 11.9263 4.07383 10.5896 2.36246 10.2237L0.473973 9.82007C-0.157991 9.68492 -0.157991 8.78329 0.473973 8.64814L2.36246 8.24454C4.07383 7.87858 5.41058 6.54188 5.77655 4.83058L6.18017 2.94216C6.31471 2.31022 7.21699 2.31022 7.35214 2.94216ZM13.333 0.30085L13.6959 1.60855C13.7897 1.94612 14.0538 2.21025 14.3914 2.30405L15.6991 2.66692C16.1003 2.77801 16.1003 3.347 15.6991 3.45808L14.3914 3.82096C14.0538 3.91476 13.7897 4.17889 13.6959 4.51646L13.333 5.82416C13.2219 6.22529 12.6529 6.22529 12.5418 5.82416L12.1789 4.51646C12.0851 4.17889 11.8209 3.91476 11.4834 3.82096L10.1756 3.45808C9.77447 3.347 9.77447 2.77801 10.1756 2.66692L11.4834 2.30405C11.8209 2.21025 12.0851 1.94612 12.1789 1.60855L12.5418 0.30085C12.6529 -0.100283 13.2219 -0.100283 13.333 0.30085Z" fill="#A8A29D"/>
</g>
<defs>
<clipPath id="clip0_7033_10235">
<rect width="16" height="16" fill="white"/>
</clipPath>
</defs>
</svg>
