<svg width="14" height="14" viewBox="0 0 14 14" fill="none" xmlns="http://www.w3.org/2000/svg">
<path d="M11.5941 2.91666C11.9035 2.91666 12.2002 3.03958 12.4191 3.25838C12.6378 3.47717 12.7608 3.77391 12.7608 4.08334V8.16666C12.7608 8.47609 12.6378 8.77284 12.4191 8.99159C12.2002 9.21043 11.9035 9.33336 11.5941 9.33336H5.17741C4.868 9.33336 4.57125 9.21043 4.35246 8.99159C4.13366 8.77284 4.01074 8.47609 4.01074 8.16666V2.91666C4.01074 2.60725 4.13366 2.3105 4.35246 2.09171C4.57125 1.87292 4.868 1.75 5.17741 1.75H6.63574C6.77159 1.75 6.90556 1.78163 7.02706 1.84237C7.14855 1.90313 7.25424 1.99133 7.33574 2.1L7.68574 2.56666C7.76725 2.67534 7.87294 2.76354 7.99443 2.82429C8.11594 2.88504 8.24991 2.91666 8.38574 2.91666H11.5941Z" stroke="currentColor" stroke-width="1.5" stroke-linecap="round" stroke-linejoin="round"/>
<path d="M1.67708 4.82324C1.49922 4.92593 1.35161 5.07375 1.24919 5.25177C1.14676 5.42979 1.09314 5.63169 1.09376 5.83707V11.0836C1.09376 11.393 1.21667 11.6897 1.43546 11.9085C1.65425 12.1273 1.951 12.2502 2.26042 12.2502H8.67708C8.88186 12.2502 9.08302 12.1963 9.26038 12.094C9.43775 11.9915 9.58501 11.8442 9.68738 11.6669" stroke="currentColor" stroke-width="1.5" stroke-linecap="round" stroke-linejoin="round"/>
</svg>
