<svg width="16" height="16" viewBox="0 0 16 16" fill="none" xmlns="http://www.w3.org/2000/svg">
<g clip-path="url(#clip0_7033_10207)">
<path d="M6.54541 10.9092H6.54641" stroke="currentColor" stroke-width="1.5" stroke-linecap="round" stroke-linejoin="round"/>
<path d="M0.881233 7.69219C0.779858 7.89444 0.727065 8.11757 0.727051 8.34382V12.3635C0.727051 12.7492 0.880294 13.1192 1.15308 13.392C1.42586 13.6648 1.79583 13.818 2.1816 13.818H13.818C14.2037 13.818 14.5737 13.6648 14.8465 13.392C15.1193 13.1192 15.2725 12.7492 15.2725 12.3635V8.34382C15.2725 8.11757 15.2197 7.89444 15.1183 7.69219L12.7634 2.98891C12.643 2.74658 12.4574 2.54264 12.2274 2.40003C11.9974 2.25742 11.7322 2.18179 11.4616 2.18164H4.53796C4.26736 2.18179 4.00215 2.25742 3.77217 2.40003C3.5422 2.54264 3.35656 2.74658 3.23614 2.98891L0.881233 7.69219Z" stroke="currentColor" stroke-width="1.5" stroke-linecap="round" stroke-linejoin="round"/>
<path d="M15.233 8.00977H0.766113" stroke="currentColor" stroke-width="1.5" stroke-linecap="round" stroke-linejoin="round"/>
<path d="M3.63623 10.9092H3.63823" stroke="currentColor" stroke-width="1.5" stroke-linecap="round" stroke-linejoin="round"/>
</g>
<defs>
<clipPath id="clip0_7033_10207">
<rect width="16" height="16" fill="white"/>
</clipPath>
</defs>
</svg>
